<?xml version="1.0" encoding="iso-8859-1"?>
<!-- Uploaded to: SVG Repo, www.svgrepo.com, Generator: SVG Repo Mixer Tools -->
<svg height="800px" width="800px" version="1.1" id="Layer_1" xmlns="http://www.w3.org/2000/svg"
	 viewBox="0 0 512 512">
<g>
	<g>
		<g>
			<path style="fill:#010101;" d="M36.96,415.796c0,11.958,9.783,21.741,21.741,21.741h139.142H313.07h139.142
				c10.87,0,20.654-9.783,20.654-21.741c0-10.85-8.055-19.909-18.48-21.494V211.297c9.967-1.195,18.48-10.453,18.48-21.607
				c0-11.958-9.783-21.741-21.741-21.741h-20.834C419.818,73.361,345.111,0.544,255.456,0.544
				c-89.93,0-164.819,73.266-176.674,167.406H58.701c-11.958,0-21.741,9.783-21.741,21.741c0,11.224,8.62,20.531,19.567,21.631
				v182.844C45.58,395.265,36.96,404.572,36.96,415.796z M100.008,211.431h310.896v182.624h-77.18V283.176
				c0-11.958-9.783-21.741-21.741-21.741h-114.14c-11.958,0-21.741,9.783-21.741,21.741v110.879h-76.093V211.431z M291.329,394.055
				h-71.745v-89.138h71.745V394.055z M254.369,42.938c67.215,0,122.74,53.931,132.259,125.011H122.141
				C131.756,97.641,187.232,42.938,254.369,42.938z"/>
			<path style="fill:#010101;" d="M490.259,467.975H21.741C9.783,467.975,0,477.758,0,489.716s9.783,21.741,21.741,21.741h467.431
				c11.958,0,21.741-9.783,22.828-21.741C512,477.758,502.217,467.975,490.259,467.975z"/>
		</g>
	</g>
</g>
</svg>